# xmcd CD database file
#
# Track frame offsets:
#	150
#	24455
#	41010
#	65663
#	80557
#	102598
#	117910
#	141534
#	160857
#	188396
#	215188
#	231463
#
# Disc length: 3480 seconds
#
# Revision: 0
# Processed by: cddbd v1.5.1PL2 Copyright (c) Steve Scherf et al.
# Submitted via: CDex 1.51
#
DISCID=b20d960c
DTITLE=Rebecca Shrimpton and Eric Hofbauer - Madman's Moon
DYEAR=2005
DGENRE=Jazz
TTITLE0=Bill
TTITLE1=Beatrice
TTITLE2=For Jon (From Sweet Time Suite)
TTITLE3=Be Anything
TTITLE4=I've Got A Crush On You
TTITLE5=Working With Sam
TTITLE6=Small Day Tommorow
TTITLE7=Pure Imagination
TTITLE8=I'm In A Mood
TTITLE9=One Life To Live
TTITLE10=Angel Eyes
TTITLE11=You're A Mean One Mr. Grinch
EXTD=YEAR: 2005
EXTT0=
EXTT1=
EXTT2=
EXTT3=
EXTT4=
EXTT5=
EXTT6=
EXTT7=
EXTT8=
EXTT9=
EXTT10=
EXTT11=
PLAYORDER=
